<?xml version="1.0" encoding="UTF-8" standalone="no"?>
<!-- Created with Inkscape (http://www.inkscape.org/) -->

<svg
   xmlns:dc="http://purl.org/dc/elements/1.1/"
   xmlns:cc="http://creativecommons.org/ns#"
   xmlns:rdf="http://www.w3.org/1999/02/22-rdf-syntax-ns#"
   xmlns:svg="http://www.w3.org/2000/svg"
   xmlns="http://www.w3.org/2000/svg"
   xmlns:sodipodi="http://sodipodi.sourceforge.net/DTD/sodipodi-0.dtd"
   xmlns:inkscape="http://www.inkscape.org/namespaces/inkscape"
   width="1280"
   height="800"
   viewBox="0 0 1280 800"
   id="svg3892"
   version="1.1"
   inkscape:version="0.91 r13725"
   sodipodi:docname="logo.svg">
  <defs
     id="defs3894" />
  <sodipodi:namedview
     id="base"
     pagecolor="#ffffff"
     bordercolor="#666666"
     borderopacity="1.0"
     inkscape:pageopacity="0.0"
     inkscape:pageshadow="2"
     inkscape:zoom="0.35"
     inkscape:cx="375"
     inkscape:cy="520"
     inkscape:document-units="px"
     inkscape:current-layer="layer1"
     showgrid="false"
     units="px" />
  <metadata
     id="metadata3897">
    <rdf:RDF>
      <cc:Work
         rdf:about="">
        <dc:format>image/svg+xml</dc:format>
        <dc:type
           rdf:resource="http://purl.org/dc/dcmitype/StillImage" />
        <dc:title></dc:title>
      </cc:Work>
    </rdf:RDF>
  </metadata>
  <g
     inkscape:label="Layer 1"
     inkscape:groupmode="layer"
     id="layer1"
     transform="translate(0,-248)">
    <g
       id="g4494"
       transform="translate(233,62.4)">
      <path
         style="fill:#00796b"
         inkscape:connector-curvature="0"
         id="path124"
         d="m 593,375 c -12,-2 -24,-3 -39,-4 13,10 14,10 -3,17 -8,4 -17,8 -25,12 0,1 0,1 0,2 1,3 1,6 2,8 0,1 0,2 0,3 10,-4 21,-9 31,-14 18,-9 18,-9 21,6 5,-10 10,-18 14,-27 1,-2 1,-3 -1,-3 z" />
      <path
         style="fill:#c69c6d"
         inkscape:connector-curvature="0"
         id="path70"
         d="m 708,691 c -1,-2 -2,-5 -3,-7 -13,-48 -40,-86 -74,-121 -22,-23 -44,-46 -72,-61 -1,0 -2,-1 -2,-1 -6,-13 -17,-18 -29,-23 -1,2 -3,4 -4,6 -2,2 -4,5 -6,8 -2,6 -4,12 -6,18 0,8 0,15 0,23 0,-1 1,-1 1,-1 8,0 15,2 18,9 5,11 9,22 14,34 11,29 22,58 32,87 -29,-2 -57,2 -84,20 -2,-2 -4,-5 -6,-7 -38,-48 -113,-39 -139,16 -6,13 -10,26 -9,40 1,50 2,100 2,149 l 41,0 c 9,-19 24,-32 42,-43 18,-12 34,-29 50,-45 4,-4 7,-6 13,-5 55,8 109,7 163,-6 27,-7 49,-22 61,-48 6,-14 6,-28 -3,-42 z" />
      <path
         style="fill:#004c40"
         inkscape:connector-curvature="0"
         id="path78"
         d="m 365,312 c 24,-9 50,-14 75,-20 9,-2 14,-1 17,8 7,18 19,28 39,25 7,-1 10,2 12,10 9,28 18,57 24,86 12,58 -1,109 -36,156 -8,11 -17,21 -28,31 -4,3 -8,5 -13,4 -75,-8 -131,-44 -164,-114 -13,-27 -24,-54 -34,-82 -2,-6 -1,-10 4,-13 16,-9 21,-23 18,-40 -3,-16 -3,-13 11,-20 24,-12 49,-23 75,-31 z m 53,34 c 5,1 6,4 6,8 1,15 12,30 7,47 0,1 0,2 1,3 8,7 7,17 8,26 1,14 5,28 12,40 7,11 5,28 21,34 1,0 1,2 2,3 1,3 3,6 8,6 4,-1 5,-5 6,-8 3,-10 5,-21 6,-32 3,-35 -9,-69 -17,-103 -1,-4 -3,-5 -6,-5 -12,-1 -21,-7 -28,-14 -8,-9 -16,-9 -26,-5 z" />
      <path
         id="path88"
         d="m -46.9,403 0,3 c 2,0 3,1 4,2 1,1 1,2 1,4 l 0,102 c 0,2 0,4 -1,5 -1,0 -2,1 -4,2 l 0,3 36.6,0 0,-3 c -2,-1 -3,-1 -4,-2 -1,-1 -1,-3 -1,-5 l 0,-39 43,0 c 11,0 20,-2 26,-4 6,-2 11,-6 15,-11 5,-6 7,-13 7,-21 0,-6 -1,-11 -4,-17 -2,-4 -5,-8 -9,-11 -4,-3 -9,-5 -14,-7 -5,-1 -12,-1 -21,-1 l -74.6,0 z m 512.9,16 0,29 3,0 c 0,-2 1,-4 2,-4 1,-1 3,-2 4,-2 l 30,0 0,73 c 0,1 -1,3 -2,4 0,1 -2,2 -4,2 l 0,3 35,0 0,-3 c -2,0 -4,-1 -4,-2 -1,-1 -2,-3 -2,-4 l 0,-73 30,0 c 2,0 3,1 4,2 1,0 2,2 2,4 l 3,0 0,-29 -3,0 c 0,2 -1,3 -2,4 -1,1 -2,1 -4,1 l -83,0 c -2,0 -3,0 -4,-1 -1,-1 -2,-2 -2,-4 l -3,0 z m -63,3 c -22,0 -38,7 -49,21 -6,9 -10,19 -10,31 0,8 2,16 6,24 3,6 8,12 14,16 10,8 23,12 39,12 8,0 15,-1 22,-3 6,-2 13,-5 21,-10 4,-2 6,-3 7,-3 1,0 2,0 3,1 l 2,-1 -14,-22 -2,2 0,2 c 0,2 -3,5 -10,9 -8,4 -17,6 -25,6 -11,0 -20,-3 -27,-8 -8,-7 -12,-15 -12,-25 0,-10 4,-18 12,-24 7,-6 16,-9 27,-9 8,0 15,2 23,5 8,4 12,7 12,10 l 0,1 0,2 2,1 14,-22 -2,-1 c -1,1 -2,1 -3,1 -1,0 -3,-1 -7,-3 -8,-5 -15,-8 -21,-10 -7,-2 -14,-3 -22,-3 z m 284,0 c -21,0 -38,7 -48,21 -7,9 -10,19 -10,31 0,8 2,16 5,24 4,6 8,12 14,16 10,8 23,12 40,12 8,0 15,-1 21,-3 6,-2 13,-5 22,-10 3,-2 6,-3 7,-3 0,0 2,0 3,1 l 2,-1 -15,-22 -2,2 0,2 c 0,2 -3,5 -9,9 -9,4 -17,6 -26,6 -10,0 -19,-3 -26,-8 -8,-7 -12,-15 -12,-25 0,-10 4,-18 12,-24 7,-6 16,-9 26,-9 8,0 16,2 23,5 8,4 12,7 12,10 l 0,1 0,2 2,1 15,-22 -2,-1 c -1,1 -3,1 -3,1 -1,0 -4,-1 -7,-3 -8,-5 -16,-8 -22,-10 -6,-2 -13,-3 -22,-3 z m -702.3,1 40,0 c 8,0 14,0 17,2 2,1 4,3 5,6 1,2 2,5 2,8 0,3 -1,5 -2,8 -1,2 -3,4 -5,5 -3,2 -9,3 -17,3 l -40,0 0,-32 z m 866.3,0 c 0,1 0,1 -10,1 l -87,0 0,3 c 10,1 10,1 10,2 l 0,4 0,82 0,4 c 0,1 0,2 -10,2 l 0,3 97,0 0,1 0,4 10,0 0,-29 -10,0 0,4 0,2 -70,0 0,-25 40,0 c 0,0 0,1 10,2 l 0,-20 -10,1 -40,0 0,-22 60,0 c 10,0 10,1 10,2 l 0,-21 z m -761.3,1 0,3 c 2,1 4,1 4,2 1,1 2,3 2,4 l 0,82 c 0,1 -1,3 -2,4 -1,1 -2,2 -4,2 l 0,3 35.3,0 0,-3 c -2,0 -4,-1 -4,-2 -1,-1 -2,-3 -2,-4 l 0,-32 24,0 20,28 c 2,3 3,5 3,6 0,2 -2,3 -5,4 l 0,3 42,0 0,-3 c -3,0 -5,-1 -7,-3 -2,-2 -5,-5 -8,-10 l -19,-26 c 10,-2 17,-5 21,-10 5,-4 7,-11 7,-19 0,-10 -4,-18 -11,-23 -3,-2 -7,-3 -12,-4 -4,-1 -11,-2 -19,-2 l -65.3,0 z m 164.3,0 0,3 c 3,1 5,3 5,6 0,2 -1,4 -2,7 l -37,73 c -1,3 -2,5 -3,6 -2,1 -3,2 -5,2 l 0,3 36,0 0,-3 c -4,-1 -6,-2 -6,-5 0,-2 1,-4 2,-6 l 5,-11 46,0 5,10 c 2,3 3,5 3,7 0,3 -2,5 -6,5 l 0,3 40,0 0,-3 c -2,0 -4,-1 -5,-2 -1,-1 -3,-4 -5,-8 l -37,-71 c -2,-3 -3,-5 -3,-7 0,-3 2,-5 5,-6 l 0,-3 -38,0 z m 324,0 0,3 c 2,1 3,1 4,2 1,1 1,3 1,4 l 0,82 c 0,1 0,3 -1,4 -1,1 -2,2 -4,2 l 0,3 35,0 0,-3 c -2,0 -4,-1 -5,-2 -1,-1 -1,-3 -1,-4 l 0,-82 c 0,-1 0,-3 1,-4 1,-1 3,-2 5,-2 l 0,-3 -35,0 z m -459,18 36,0 c 7,0 11,1 14,3 2,2 4,4 4,9 0,4 -2,8 -6,9 -2,1 -6,2 -12,2 l -36,0 0,-23 z m 153,11 16,32 -32,0 16,-32 z M 42.7,533 c -26,0 -45.99,8 -58,24 -9,11 -12.6,24 -12.6,39 0,10 2,20 6.6,29 4,8 10,14 17.01,20 12,9 27.99,13 46.99,13 9,0 18,-1 25,-3 7,-2 15,-6 25,-12 5,-3 8.3,-4 9.3,-4 1,0 3,1 4,2 l 3,-1 -17.3,-26 -3,2 c 0,1 1,2 1,2 0,2 -1,4 -3,5 -1,2 -4,4 -8,6 -10,6 -21,9 -33,9 -14,0 -25,-4 -33,-11 -9.99,-8 -13.99,-18 -13.99,-31 0,-13 4,-24 13.99,-32 8,-7 19,-10 33,-10 12,0 23,2 33,8 4,2 7,4 8,6 2,1 3,3 3,5 0,0 -1,1 -1,2 l 3,2 17.3,-26 -3,-1 c -1,1 -3,2 -4,2 -1,0 -4.3,-1 -9.3,-4 -10,-6 -19,-10 -25,-12 -7,-2 -16,-3 -25,-3 z m 341.3,18 0,29 2,0 c 1,-2 2,-3 3,-4 1,-1 2,-1 4,-1 l 29,0 0,72 c 0,2 0,3 -1,4 -1,1 -2,2 -5,3 l 0,2 36,0 0,-2 c -3,-1 -4,-2 -5,-3 -1,-1 -1,-2 -1,-4 l 0,-72 29,0 c 2,0 3,0 4,1 1,1 2,2 3,4 l 2,0 0,-29 -2,0 c -1,2 -2,4 -3,5 -1,0 -2,1 -4,1 l -82,0 c -2,0 -4,-1 -4,-1 -1,-1 -2,-3 -3,-5 l -2,0 z m -203,4 c -15,0 -28,4 -39,12 -13,9 -19,22 -19,39 0,17 6,30 19,40 10,8 24,12 39,12 16,0 29,-4 40,-12 12,-10 19,-23 19,-39 0,-17 -7,-31 -19,-40 -11,-8 -24,-12 -40,-12 z m 493,0 c -15,0 -29,4 -39,12 -13,9 -19,22 -19,39 0,17 6,30 19,40 10,8 24,12 39,12 16,0 29,-4 40,-12 12,-10 18,-23 18,-39 0,-17 -6,-31 -18,-40 -11,-8 -24,-12 -40,-12 z m -419,2 0,2 c 3,1 4,2 5,3 1,1 1,2 1,4 l 0,81 c 0,2 0,3 -1,4 -1,1 -3,2 -5,3 l 0,2 33,0 0,-2 c -2,-1 -3,-2 -4,-3 -1,-1 -1,-2 -1,-4 l 0,-56 52,52 c 3,2 5,4 5,5 1,1 1,2 1,2 0,2 -1,3 -4,4 l 0,2 36,0 0,-2 c -2,-1 -4,-2 -4,-3 -1,-1 -2,-2 -2,-4 l 0,-81 c 0,-2 1,-3 2,-4 0,-1 2,-2 4,-3 l 0,-2 -33,0 0,2 c 2,1 4,2 4,3 1,1 2,2 2,4 l 0,55 -54,-53 c -1,-2 -2,-4 -2,-5 0,-2 1,-3 4,-4 l 0,-2 -39,0 z m 240,0 0,2 c 2,1 4,2 5,3 0,1 1,2 1,4 l 0,81 c 0,2 -1,3 -2,4 0,1 -2,2 -4,3 l 0,2 35,0 0,-2 c -2,-1 -3,-2 -4,-3 -1,-1 -1,-2 -1,-4 l 0,-32 23,0 20,29 c 2,2 3,4 3,6 0,1 -2,3 -5,4 l 0,2 42,0 0,-2 c -2,-1 -5,-2 -7,-4 -2,-1 -5,-5 -8,-10 l -19,-26 c 10,-2 17,-5 21,-10 5,-4 7,-10 7,-18 0,-11 -3,-19 -11,-23 -3,-3 -7,-4 -12,-5 -4,-1 -10,-1 -19,-1 l -65,0 z m 249,0 0,2 c 10,1 10,2 10,3 l 0,4 0,81 0,4 c 0,1 0,2 -10,3 l 0,2 87,0 0,1 c 10,1 10,3 10,5 l 0,-30 c 0,3 0,4 -10,5 l 0,1 -60,0 0,-72 c 0,-2 0,-3 10,-4 l 0,-3 0,-2 -37,0 z m -563,16 c 10,1 19,4 25,10 6,6 9,14 9,24 0,9 -3,16 -9,22 -6,7 -14,10 -25,10 -10,0 -18,-3 -25,-10 -6,-6 -9,-13 -9,-23 0,-9 3,-17 9,-23 7,-6 15,-10 25,-10 z m 493,0 c 10,1 19,4 25,10 6,6 9,14 9,24 0,9 -3,16 -9,22 -6,7 -14,10 -25,10 -10,0 -18,-3 -25,-10 -6,-6 -9,-13 -9,-23 0,-9 3,-17 9,-23 7,-6 15,-10 25,-10 z m -149,2 35,0 c 7,0 11,1 14,2 3,2 4,5 4,9 0,5 -2,8 -6,10 -2,1 -6,1 -12,1 l -35,0 0,-22 z"
         style="fill:#7ecb20"
         inkscape:connector-curvature="0" />
      <path
         style="fill:#00796b"
         inkscape:connector-curvature="0"
         id="path126"
         d="m 435,449 c -1,-1 -2,-2 -4,-3 -1,0 -2,-1 -4,-1 -16,7 -32,15 -49,22 -2,2 -83,40 -92,39 -12,0 -25,-1 -37,-2 -7,0 -13,0 -20,3 -19,8 -39,16 -59,24 -2,1 -6,2 -6,4 23,2 45,4 68,6 9,0 11,3 9,9 -8,17 -15,34 -23,53 23,-13 45,-25 66,-37 2,-1 3,-2 3,-3 1,-7 7,-14 9,-21 3,-9 5,-19 21,-24 2,-1 69,-35 69,-35 17,-7 33,-16 50,-24 0,-2 1,-5 2,-8 0,0 0,0 -1,0 -1,-1 -1,-2 -2,-2 z" />
    </g>
  </g>
</svg>
