<svg xmlns="http://www.w3.org/2000/svg" width="1280" height="300" viewBox="0 0 1280 800"><g><path fill="#00796b" d="M826 189c-12-2-24-3-39-4 13 10 14 10-3 17l-25 12v2c1 3 1 6 2 8v3c10-4 21-9 31-14 18-9 18-9 21 6 5-10 10-18 14-27 1-2 1-3-1-3z"/><path fill="#c69c6c" d="M941 505l-3-7c-13-48-40-86-74-121-22-23-44-46-72-61-1 0-2-1-2-1-6-13-17-18-29-23l-4 6c-2 2-4 5-6 8l-6 18v23c0-1 1-1 1-1 8 0 15 2 18 9 5 11 9 22 14 34 11 29 22 58 32 87-29-2-57 2-84 20l-6-7c-38-48-113-39-139 16-6 13-10 26-9 40 1 50 2 100 2 149h41c9-19 24-32 42-43 18-12 34-29 50-45 4-4 7-6 13-5 55 8 109 7 163-6 27-7 49-22 61-48 6-14 6-28-3-42z"/><path fill="#004c40" d="M598 126c24-9 50-14 75-20 9-2 14-1 17 8 7 18 19 28 39 25 7-1 10 2 12 10 9 28 18 57 24 86 12 58-1 109-36 156-8 11-17 21-28 31-4 3-8 5-13 4-75-8-131-44-164-114-13-27-24-54-34-82-2-6-1-10 4-13 16-9 21-23 18-40-3-16-3-13 11-20 24-12 49-23 75-31zm53 34c5 1 6 4 6 8 1 15 12 30 7 47 0 1 0 2 1 3 8 7 7 17 8 26 1 14 5 28 12 40 7 11 5 28 21 34 1 0 1 2 2 3 1 3 3 6 8 6 4-1 5-5 6-8 3-10 5-21 6-32 3-35-9-69-17-103-1-4-3-5-6-5-12-1-21-7-28-14-8-9-16-9-26-5z"/><path d="M186 217v3c2 0 3 1 4 2s1 2 1 4v102c0 2 0 4-1 5-1 0-2 1-4 2v3h37v-3c-2-1-3-1-4-2s-1-3-1-5v-39h43c11 0 20-2 26-4s11-6 15-11c5-6 7-13 7-21 0-6-1-11-4-17-2-4-5-8-9-11s-9-5-14-7c-5-1-12-1-21-1zm513 16v29h3c0-2 1-4 2-4 1-1 3-2 4-2h30v73c0 1-1 3-2 4 0 1-2 2-4 2v3h35v-3c-2 0-4-1-4-2-1-1-2-3-2-4v-73h30c2 0 3 1 4 2 1 0 2 2 2 4h3v-29h-3c0 2-1 3-2 4s-2 1-4 1h-83c-2 0-3 0-4-1s-2-2-2-4zm-63 3c-22 0-38 7-49 21-6 9-10 19-10 31 0 8 2 16 6 24 3 6 8 12 14 16 10 8 23 12 39 12 8 0 15-1 22-3 6-2 13-5 21-10 4-2 6-3 7-3s2 0 3 1l2-1-14-22-2 2v2c0 2-3 5-10 9-8 4-17 6-25 6-11 0-20-3-27-8-8-7-12-15-12-25s4-18 12-24c7-6 16-9 27-9 8 0 15 2 23 5 8 4 12 7 12 10v3l2 1 14-22-2-1c-1 1-2 1-3 1s-3-1-7-3c-8-5-15-8-21-10-7-2-14-3-22-3zm284 0c-21 0-38 7-48 21-7 9-10 19-10 31 0 8 2 16 5 24 4 6 8 12 14 16 10 8 23 12 40 12 8 0 15-1 21-3s13-5 22-10c3-2 6-3 7-3 0 0 2 0 3 1l2-1-15-22-2 2v2c0 2-3 5-9 9-9 4-17 6-26 6-10 0-19-3-26-8-8-7-12-15-12-25s4-18 12-24c7-6 16-9 26-9 8 0 16 2 23 5 8 4 12 7 12 10v3l2 1 15-22-2-1c-1 1-3 1-3 1-1 0-4-1-7-3-8-5-16-8-22-10s-13-3-22-3zm-702 1h40c8 0 14 0 17 2 2 1 4 3 5 6 1 2 2 5 2 8s-1 5-2 8c-1 2-3 4-5 5-3 2-9 3-17 3h-40zm862 0c0 1 0 1-10 1h-83v3s4 1 4 2v90c0 1-4 2-4 2v3h93v5h10v-29h-10v6h-70v-25h40s0 1 10 2v-20l-10 1h-40v-22h60c10 0 10 1 10 2v6h10v-34h-10zm-757 1v3c2 1 4 1 4 2 1 1 2 3 2 4v82c0 1-1 3-2 4s-2 2-4 2v3h35v-3c-2 0-4-1-4-2-1-1-2-3-2-4v-32h24l20 28c2 3 3 5 3 6 0 2-2 3-5 4v3h42v-3c-3 0-5-1-7-3s-5-5-8-10l-19-26c10-2 17-5 21-10 5-4 7-11 7-19 0-10-4-18-11-23-3-2-7-3-12-4-4-1-11-2-19-2zm164 0v3c3 1 5 3 5 6 0 2-1 4-2 7l-37 73c-1 3-2 5-3 6-2 1-3 2-5 2v3h36v-3c-4-1-6-2-6-5 0-2 1-4 2-6l5-11h46l5 10c2 3 3 5 3 7 0 3-2 5-6 5v3h40v-3c-2 0-4-1-5-2s-3-4-5-8l-37-71c-2-3-3-5-3-7 0-3 2-5 5-6v-3zm324 0v3c2 1 3 1 4 2s1 3 1 4v82c0 1 0 3-1 4s-2 2-4 2v3h35v-3c-2 0-4-1-5-2s-1-3-1-4v-82c0-1 0-3 1-4s3-2 5-2v-3zm-459 18h36c7 0 11 1 14 3 2 2 4 4 4 9 0 4-2 8-6 9-2 1-6 2-12 2h-36zm153 11l16 32h-32zm-229 80c-26 0-46 8-58 24-9 11-13 24-13 39 0 10 2 20 7 29 4 8 10 14 17 20 12 9 28 13 47 13 9 0 18-1 25-3s15-6 25-12c5-3 8-4 9-4s3 1 4 2l3-1-17-26-3 2c0 1 1 2 1 2 0 2-1 4-3 5-1 2-4 4-8 6-10 6-21 9-33 9-14 0-25-4-33-11-10-8-14-18-14-31s4-24 14-32c8-7 19-10 33-10 12 0 23 2 33 8 4 2 7 4 8 6 2 1 3 3 3 5 0 0-1 1-1 2l3 2 17-26-3-1c-1 1-3 2-4 2s-4-1-9-4c-10-6-19-10-25-12-7-2-16-3-25-3zm341 18v29h2c1-2 2-3 3-4s2-1 4-1h29v72c0 2 0 3-1 4s-2 2-5 3v2h36v-2c-3-1-4-2-5-3s-1-2-1-4v-72h29c2 0 3 0 4 1s2 2 3 4h2v-29h-2c-1 2-2 4-3 5-1 0-2 1-4 1h-82c-2 0-4-1-4-1-1-1-2-3-3-5zm-203 4c-15 0-28 4-39 12-13 9-19 22-19 39s6 30 19 40c10 8 24 12 39 12 16 0 29-4 40-12 12-10 19-23 19-39 0-17-7-31-19-40-11-8-24-12-40-12zm493 0c-15 0-29 4-39 12-13 9-19 22-19 39s6 30 19 40c10 8 24 12 39 12 16 0 29-4 40-12 12-10 18-23 18-39 0-17-6-31-18-40-11-8-24-12-40-12zm-419 2v2c3 1 4 2 5 3s1 2 1 4v81c0 2 0 3-1 4s-3 2-5 3v2h33v-2c-2-1-3-2-4-3s-1-2-1-4v-56l52 52c3 2 5 4 5 5 1 1 1 2 1 2 0 2-1 3-4 4v2h36v-2c-2-1-4-2-4-3-1-1-2-2-2-4v-81c0-2 1-3 2-4 0-1 2-2 4-3v-2h-33v2c2 1 4 2 4 3 1 1 2 2 2 4v55l-54-53c-1-2-2-4-2-5 0-2 1-3 4-4v-2zm240 0v2c2 1 4 2 5 3 0 1 1 2 1 4v81c0 2-1 3-2 4 0 1-2 2-4 3v2h35v-2c-2-1-3-2-4-3s-1-2-1-4v-32h23l20 29c2 2 3 4 3 6 0 1-2 3-5 4v2h42v-2c-2-1-5-2-7-4-2-1-5-5-8-10l-19-26c10-2 17-5 21-10 5-4 7-10 7-18 0-11-3-19-11-23-3-3-7-4-12-5-4-1-10-1-19-1zm249 0v2s4 2 4 3v89c0 1-4 3-4 3v2h83l10 6v-30l-10 6h-60v-72c0-2 10-4 10-4v-5zm-563 16c10 1 19 4 25 10s9 14 9 24c0 9-3 16-9 22-6 7-14 10-25 10-10 0-18-3-25-10-6-6-9-13-9-23 0-9 3-17 9-23 7-6 15-10 25-10zm493 0c10 1 19 4 25 10s9 14 9 24c0 9-3 16-9 22-6 7-14 10-25 10-10 0-18-3-25-10-6-6-9-13-9-23 0-9 3-17 9-23 7-6 15-10 25-10zm-149 2h35c7 0 11 1 14 2 3 2 4 5 4 9 0 5-2 8-6 10-2 1-6 1-12 1h-35z" fill="#7ecb20"/><path fill="#00796b" d="M668 263c-1-1-2-2-4-3-1 0-2-1-4-1-16 7-32 15-49 22-2 2-83 40-92 39-12 0-25-1-37-2-7 0-13 0-20 3-19 8-39 16-59 24-2 1-6 2-6 4l68 6c9 0 11 3 9 9-8 17-15 34-23 53 23-13 45-25 66-37 2-1 3-2 3-3 1-7 7-14 9-21 3-9 5-19 21-24 2-1 69-35 69-35 17-7 33-16 50-24 0-2 1-5 2-8h-1c-1-1-1-2-2-2z"/></g></svg>